<svg width="202" height="46" viewBox="0 0 202 46" fill="none" xmlns="http://www.w3.org/2000/svg">
<mask id="mask0_11_1264" style="mask-type:luminance" maskUnits="userSpaceOnUse" x="0" y="0" width="202" height="46">
<path d="M202 0H0V46H202V0Z" fill="white"/>
</mask>
<g mask="url(#mask0_11_1264)">
<path d="M0.0628223 40.0522C0.283981 38.6756 2.12697 28.2875 2.12697 28.2875C3.23158 29.7865 4.25889 31.1475 4.55734 31.5219C4.9756 31.9389 5.53497 32.1763 6.11998 32.1851C6.70498 32.1939 7.27098 31.9734 7.70112 31.5692L16.6604 23.806L6.97938 11.7806C6.15421 10.6843 5.65014 9.37237 5.5254 7.99644C5.40066 6.62052 5.66034 5.2367 6.27444 4.00479C6.88855 2.77289 7.83202 1.74316 8.99591 1.03453C10.1598 0.325903 11.4966 -0.03272 12.852 8.09326e-05H43.1032C41.0818 1.7585 34.906 7.13312 33.6504 8.19593C32.8065 8.88768 31.7444 9.24264 30.6624 9.19451H22.1228C21.8999 9.19243 21.6814 9.25762 21.4948 9.38186C21.3082 9.5061 21.1618 9.68384 21.0741 9.8927C20.9863 10.1016 20.9612 10.3322 21.0019 10.5556C21.0425 10.779 21.147 10.9851 21.3024 11.148L36.1462 29.4702C36.2881 29.632 36.4719 29.7497 36.6765 29.8098C36.8811 29.8699 37.0982 29.8699 37.3029 29.8099C37.5075 29.7499 37.6914 29.6324 37.8334 29.4707C37.9754 29.309 38.0698 29.1097 38.1057 28.8958L39.5944 20.2746C39.7122 19.1411 40.2569 18.0984 41.1139 17.3661C42.5967 16.0803 47.8819 11.4946 50.537 9.19451L45.2185 39.9759C44.9497 41.3259 44.3192 42.5736 43.3968 43.5805C42.4744 44.5874 41.2963 45.314 39.9932 45.6797C38.6902 46.0454 37.3131 46.0359 36.0151 45.6522C34.717 45.2685 33.5486 44.5256 32.6398 43.5061L23.2464 31.9388C23.2464 31.9388 9.83424 43.6273 8.45021 44.7664C7.65429 45.4381 6.67845 45.85 5.64967 45.9487C4.62088 46.0473 3.58678 45.8281 2.68192 45.3195C1.77706 44.8109 1.04333 44.0365 0.576209 43.0971C0.109088 42.1577 -0.0697994 41.0967 0.0628223 40.0522Z" fill="#C00020"/>
<path fill-rule="evenodd" clip-rule="evenodd" d="M92.1091 9.29863H87.3791L79.4935 26.8065L82.5231 9.29863H77.7337L71.3903 45.9697H76.1797L78.7587 31.0637L81.038 45.9697H85.7668L83.2247 29.1248L92.1091 9.29863ZM63.0659 9.29863C62.1339 9.33279 61.2404 9.68632 60.5299 10.3021C59.8194 10.9178 59.3334 11.7598 59.1505 12.6919L53.4027 45.9697H58.185L60.4905 32.6392L65.5486 31.5061L63.0517 45.9721H67.7864L74.1286 9.30105L63.0659 9.29863ZM66.35 26.8707L61.2978 28.0038L63.6759 14.2479C63.7038 14.1037 63.7788 13.9735 63.8888 13.8784C63.9987 13.7833 64.137 13.729 64.2811 13.7244H68.6294L66.35 26.8707ZM142.757 12.7088C142.852 12.2933 142.852 11.861 142.757 11.4454C142.662 11.0299 142.474 10.6422 142.208 10.3126C141.942 9.98292 141.605 9.72008 141.224 9.54446C140.842 9.36883 140.426 9.28513 140.008 9.29984H128.95L122.611 45.9709H127.416L129.724 32.6404L136.052 30.8226C137.189 30.467 138.208 29.7978 138.996 28.8888C139.783 27.9798 140.309 26.8666 140.514 25.6721L142.757 12.7088ZM135.663 25.9981C135.637 26.179 135.563 26.3491 135.448 26.4894C135.333 26.6298 135.183 26.7349 135.013 26.7931L130.526 27.988L132.979 13.688H137.291C137.356 13.6855 137.42 13.6983 137.479 13.7253C137.538 13.7523 137.59 13.7928 137.631 13.8437C137.672 13.8946 137.702 13.9545 137.716 14.0187C137.731 14.0829 137.731 14.1497 137.717 14.214L135.663 25.9981ZM199.212 9.29984H191.431C190.499 9.33406 189.607 9.68774 188.897 10.3036C188.188 10.9194 187.703 11.7614 187.521 12.6931L182.355 42.5716C182.259 42.9869 182.258 43.4192 182.351 43.835C182.445 44.2509 182.631 44.6393 182.895 44.9703C183.16 45.3013 183.495 45.5661 183.875 45.7442C184.256 45.9222 184.671 46.0089 185.09 45.9976H192.868C193.8 45.9638 194.693 45.6102 195.402 44.9943C196.112 44.3784 196.597 43.5362 196.778 42.6043L198.503 32.6367H193.774L192.3 41.0762C192.272 41.2199 192.198 41.3499 192.089 41.4451C191.979 41.5403 191.842 41.5952 191.698 41.6009H187.87C187.805 41.6034 187.741 41.5906 187.682 41.5637C187.623 41.5368 187.571 41.4963 187.53 41.4456C187.489 41.3948 187.46 41.335 187.445 41.271C187.43 41.2069 187.43 41.1402 187.445 41.0762L192.082 14.2939C192.11 14.1504 192.185 14.0207 192.295 13.9259C192.404 13.8311 192.542 13.7767 192.685 13.7716H196.516C196.58 13.7693 196.644 13.7821 196.703 13.809C196.761 13.8359 196.813 13.8762 196.853 13.9268C196.894 13.9773 196.923 14.0367 196.937 14.1004C196.952 14.1641 196.952 14.2303 196.937 14.2939L195.658 21.7021H200.404L201.95 12.6979C202.045 12.2844 202.045 11.8543 201.95 11.4409C201.855 11.0274 201.668 10.6418 201.404 10.3137C201.14 9.98563 200.805 9.72398 200.425 9.54901C200.046 9.37404 199.632 9.29044 199.215 9.30469M201.612 4.13245C201.612 4.13245 193.117 4.75413 192.29 4.80624C191.914 4.83967 191.56 4.99867 191.282 5.25856C191.003 5.51845 190.817 5.86469 190.752 6.24352L190.527 7.55233H201.018L201.612 4.13245ZM179.79 9.29863L173.449 45.9697H178.239L184.583 9.29863H179.79ZM157.189 9.29863H149.411C148.479 9.33221 147.586 9.68565 146.876 10.3016C146.167 10.9176 145.682 11.7599 145.501 12.6919L140.33 42.5704C140.234 42.9857 140.233 43.418 140.326 43.8338C140.42 44.2497 140.606 44.6381 140.87 44.9691C141.135 45.3001 141.47 45.5648 141.85 45.7429C142.231 45.921 142.646 46.0077 143.065 45.9963H150.846C151.777 45.9621 152.67 45.6084 153.379 44.9925C154.088 44.3766 154.573 43.5347 154.754 42.6031L159.929 12.6919C160.024 12.2783 160.024 11.848 159.93 11.4344C159.835 11.0207 159.648 10.6348 159.384 10.3066C159.119 9.97845 158.784 9.71679 158.404 9.54198C158.025 9.36716 157.61 9.28389 157.194 9.29863M150.279 41.0762C150.251 41.2197 150.176 41.3494 150.066 41.4442C149.957 41.539 149.819 41.5934 149.676 41.5985H145.848C145.784 41.6009 145.72 41.5881 145.661 41.5613C145.603 41.5345 145.551 41.4943 145.51 41.4439C145.469 41.3934 145.44 41.334 145.425 41.2702C145.41 41.2065 145.41 41.1401 145.424 41.0762L150.069 14.1728C150.098 14.0293 150.173 13.8998 150.283 13.8051C150.392 13.7104 150.53 13.6559 150.673 13.6504H154.503C154.567 13.6482 154.631 13.661 154.69 13.6879C154.748 13.7148 154.8 13.7551 154.841 13.8056C154.881 13.856 154.91 13.9154 154.925 13.9791C154.94 14.0428 154.94 14.109 154.925 14.1728L150.279 41.0762ZM105.519 25.6273L107.76 12.6603C107.854 12.2469 107.854 11.817 107.759 11.4038C107.664 10.9905 107.477 10.6051 107.213 10.2771C106.949 9.94917 106.614 9.68753 106.235 9.51241C105.855 9.33729 105.442 9.25336 105.025 9.26712L93.9532 9.30469L87.6098 45.9757H92.4218L94.7261 32.6452L96.5263 32.2199L97.2671 45.9782H102.15L101.184 30.7547C102.302 30.3961 103.301 29.7271 104.067 28.8228C104.834 27.9185 105.338 26.8145 105.524 25.6346M100.649 26.0842C100.626 26.258 100.555 26.4216 100.444 26.5552C100.332 26.6889 100.185 26.7871 100.021 26.838L95.5358 27.9929L97.9971 13.7583L102.265 13.7777C102.329 13.7754 102.393 13.7882 102.451 13.8152C102.51 13.8422 102.562 13.8825 102.602 13.9332C102.643 13.9838 102.672 14.0433 102.687 14.1072C102.701 14.171 102.701 14.2374 102.687 14.3012L100.649 26.0842ZM114.388 9.3059C113.456 9.34033 112.563 9.69398 111.853 10.3097C111.142 10.9254 110.656 11.7672 110.474 12.6991L104.725 45.9745H109.495L111.801 32.644L116.856 31.5121L114.359 45.9697H119.095L125.439 9.29863L114.388 9.3059ZM117.674 26.878L112.622 28.011L115 14.2552C115.028 14.1115 115.103 13.9816 115.212 13.8866C115.322 13.7916 115.459 13.737 115.603 13.7316H119.951L117.674 26.878ZM172.408 9.3059L165.315 36.242L167.552 9.3059H162.751L160.838 45.977H166.417L177.129 9.3059H172.408Z" fill="white"/>
</g>
</svg>
